<svg xmlns="http://www.w3.org/2000/svg" style="overflow: hidden; position: relative;" width="70" height="75" version="1.1" xmlns="http://www.w3.org/2000/svg"><desc>Created with Raphaël 2.1.0</desc><defs /><circle fill="#0099cc" stroke="none" cx="35" cy="35" r="35" /><circle style="opacity: 0.8;" opacity="0.8" fill="none" stroke="#eeeeee" stroke-dasharray="4,3" cx="35" cy="35" r="33" /><path fill="#ffffff" stroke="none" stroke-width="1.42857" transform="matrix(0.7 0 0 0.7 0 0)" d="M 60.316 62.096 L 40.592 27.931 C 41.513 24.93 42.631 20.739 41.332 18.489 C 39.077 14.585 36.618 10.325 36.618 10.325 L 21.36 19.134 C 21.36 19.134 23.819 23.394 26.074 27.298 C 27.373 29.548 31.562 30.676 34.621 31.378 L 54.347 65.543 L 45.059 70.905 C 45.059 70.905 49.238 78.143 53.156 84.927 C 57.072 91.713 72.006 89.235 72.006 89.235 S 81.617 77.542 77.701 70.756 C 73.783 63.971 69.605 56.734 69.605 56.734 L 60.316 62.096 Z M 29.545 25.648 C 28.276 23.451 27.359 21.862 27.359 21.862 L 35.982 16.883 C 35.982 16.883 36.9 18.473 38.168 20.669 S 36.794 28.248 36.794 28.248 S 30.813 27.844 29.545 25.648 Z" /></svg>